<?xml version="1.0" encoding="UTF-8"?>
<svg version="1.1" viewBox="0 0 512 512" xml:space="preserve" xmlns="http://www.w3.org/2000/svg"><path d="m141.45 235.05c-27.32 2.93-52.64 20.46-65 45-7.9 15.684-10.62 33.786-8.57 51.227 2.048 17.443 8.76 34.206 18.57 48.773 21.592 32.066 57.356 52.618 94.757 62.393 37.401 9.777 76.644 9.737 115.24 7.607 23.788-1.312 48.063-3.524 69.811-13.249 10.875-4.862 20.996-11.609 29.047-20.389 8.05-8.78 13.97-19.65 16.142-31.362 2.645-14.258-0.375-29.243-6.985-42.15s-16.65-23.842-28.015-32.85c-25.674-20.352-58.708-31.206-91.45-30.047m-45 0c-11.437 2.162-22.233 7.612-30.765 15.528s-14.775 18.276-17.785 29.519c-3.996 14.92-2.174 31.32 5 45" fill="none" stroke="#000" stroke-linecap="round" stroke-linejoin="round" stroke-width="30"/><path d="m235.83 390.99 26.21-29.361 46.437-179.08-15.06 58.08c38.718 10.04 107.91 2.156 127.81-54.668 19.833-56.628-10.033-100.74-72.951-117.06l-43.56-11.295-76.56 295.23z" fill="none" stroke="#000" stroke-linecap="round" stroke-linejoin="round" stroke-width="27"/></svg>
