<?xml version="1.0" encoding="UTF-8"?>
<svg viewBox="0 0 210 80" xmlns="http://www.w3.org/2000/svg">
<g fill="none" stroke="#000" stroke-linecap="round" stroke-linejoin="round" stroke-width="7.17">
<path d="M54.88 25.81c-2.9-3.2-6.8-5.48-11.01-6.44s-8.72-.6-12.72 1.03-7.49 4.5-9.84 8.12a21.1 21.1 0 0 0 2.58 26.3 20.3 20.3 0 0 0 14 5.99c5.25.07 10.5-2.07 14.21-5.78a20 20 0 0 0 5.78-14.22h-20m30-5v25m15-20.01a10 10 0 0 0-10 0 10 10 0 0 0-5 8.59"/>
<circle cx="99.3" cy="50.81" r="10"/>
<path d="M109.3 60.81v-20m8.58 20.53v-30a12.2 12.2 0 0 1 2.74-12.36 12.2 12.2 0 0 1 12.26-3.17c3.07.94 5.7 3.12 7.41 5.84a18 18 0 0 1 2.6 9.16 18 18 0 0 1-2.42 9.49 13.6 13.6 0 0 1-7.59 6.04 12.1 12.1 0 0 1-11.97-3.03 12.1 12.1 0 0 1-3.03-11.97m46.87 24.94a9.9 9.9 0 0 1-8.5 4.9 9.9 9.9 0 0 1-8.5-4.9 10.7 10.7 0 0 1-1.38-5.49c.03-1.9.53-3.8 1.38-5.51a12 12 0 0 1 3.02-3.88 9 9 0 0 1 4.46-2.01 7.2 7.2 0 0 1 4.76.95 6 6 0 0 1 2.76 3.94 5.6 5.6 0 0 1-2.07 5.42 5.6 5.6 0 0 1-5.77.58m17.97 10.53v-23m19 23-2-15a9 9 0 0 0-.57-2.44 4.6 4.6 0 0 0-3.93-2.74 9 9 0 0 0-2.5.18c-3.7.7-7.22 2.45-10 5"/>
</g>
</svg>
